<svg width="16" height="16" viewBox="0 0 16 16" fill="none" xmlns="http://www.w3.org/2000/svg">
<path fill-rule="evenodd" clip-rule="evenodd" d="M3.33317 8.66683H11.2432L8.82117 11.5735C8.58517 11.8562 8.62384 12.2768 8.9065 12.5122C9.18984 12.7482 9.60984 12.7095 9.84584 12.4268L13.1792 8.42683C13.2052 8.3955 13.2178 8.35883 13.2372 8.32416C13.2532 8.29616 13.2725 8.27216 13.2845 8.2415C13.3145 8.16483 13.3325 8.08416 13.3325 8.00283C13.3325 8.00216 13.3332 8.00083 13.3332 8.00016C13.3332 7.9995 13.3325 7.99816 13.3325 7.9975C13.3325 7.91616 13.3145 7.8355 13.2845 7.75883C13.2725 7.72816 13.2532 7.70416 13.2372 7.67616C13.2178 7.6415 13.2052 7.60483 13.1792 7.5735L9.84584 3.5735C9.71317 3.4155 9.52384 3.3335 9.33317 3.3335C9.1825 3.3335 9.03117 3.38416 8.9065 3.48816C8.62384 3.7235 8.58517 4.14416 8.82117 4.42683L11.2432 7.3335H3.33317C2.96517 7.3335 2.6665 7.63216 2.6665 8.00016C2.6665 8.36816 2.96517 8.66683 3.33317 8.66683Z" fill="#25A59E"/>
<mask id="mask0_5584_58" style="mask-type:luminance" maskUnits="userSpaceOnUse" x="2" y="3" width="12" height="10">
<path fill-rule="evenodd" clip-rule="evenodd" d="M3.33317 8.66683H11.2432L8.82117 11.5735C8.58517 11.8562 8.62384 12.2768 8.9065 12.5122C9.18984 12.7482 9.60984 12.7095 9.84584 12.4268L13.1792 8.42683C13.2052 8.3955 13.2178 8.35883 13.2372 8.32416C13.2532 8.29616 13.2725 8.27216 13.2845 8.2415C13.3145 8.16483 13.3325 8.08416 13.3325 8.00283C13.3325 8.00216 13.3332 8.00083 13.3332 8.00016C13.3332 7.9995 13.3325 7.99816 13.3325 7.9975C13.3325 7.91616 13.3145 7.8355 13.2845 7.75883C13.2725 7.72816 13.2532 7.70416 13.2372 7.67616C13.2178 7.6415 13.2052 7.60483 13.1792 7.5735L9.84584 3.5735C9.71317 3.4155 9.52384 3.3335 9.33317 3.3335C9.1825 3.3335 9.03117 3.38416 8.9065 3.48816C8.62384 3.7235 8.58517 4.14416 8.82117 4.42683L11.2432 7.3335H3.33317C2.96517 7.3335 2.6665 7.63216 2.6665 8.00016C2.6665 8.36816 2.96517 8.66683 3.33317 8.66683Z" fill="white"/>
</mask>
<g mask="url(#mask0_5584_58)">
<rect width="16" height="16" fill="#25A59E"/>
</g>
</svg>
