<svg width="22" height="22" viewBox="0 0 22 22" fill="none" xmlns="http://www.w3.org/2000/svg">
<path fill-rule="evenodd" clip-rule="evenodd" d="M11.0017 0.333984C8.10473 0.333984 7.74117 0.346651 6.60338 0.398429C5.46782 0.45043 4.6927 0.63021 4.01447 0.89399C3.3129 1.16644 2.71779 1.53089 2.12489 2.124C1.53155 2.7169 1.1671 3.31201 0.893768 4.01336C0.629321 4.69181 0.449319 5.46715 0.398207 6.60227C0.347318 7.74006 0.333984 8.10384 0.333984 11.0008C0.333984 13.8977 0.346873 14.2601 0.398429 15.3979C0.450652 16.5335 0.630432 17.3086 0.89399 17.9868C1.16666 18.6884 1.53111 19.2835 2.12423 19.8764C2.7169 20.4697 3.31202 20.8351 4.01313 21.1075C4.69181 21.3713 5.46715 21.5511 6.60249 21.6031C7.74028 21.6549 8.10362 21.6675 11.0003 21.6675C13.8975 21.6675 14.2599 21.6549 15.3977 21.6031C16.5333 21.5511 17.3093 21.3713 17.9879 21.1075C18.6893 20.8351 19.2835 20.4697 19.8762 19.8764C20.4695 19.2835 20.834 18.6884 21.1073 17.9871C21.3695 17.3086 21.5495 16.5333 21.6029 15.3981C21.654 14.2604 21.6673 13.8977 21.6673 11.0008C21.6673 8.10384 21.654 7.74028 21.6029 6.60249C21.5495 5.46693 21.3695 4.69181 21.1073 4.01358C20.834 3.31202 20.4695 2.7169 19.8762 2.124C19.2828 1.53066 18.6895 1.16622 17.9873 0.89399C17.3073 0.63021 16.5317 0.45043 15.3961 0.398429C14.2584 0.346651 13.8961 0.333984 10.9983 0.333984H11.0017ZM10.0447 2.2562C10.3287 2.25575 10.6456 2.2562 11.0016 2.2562C13.8496 2.2562 14.1872 2.26642 15.3119 2.31753C16.3519 2.36509 16.9163 2.53887 17.2923 2.68487C17.7901 2.8782 18.145 3.10932 18.5181 3.48265C18.8915 3.85599 19.1226 4.21155 19.3164 4.70933C19.4624 5.08489 19.6364 5.64934 19.6837 6.68935C19.7348 7.81381 19.7459 8.15159 19.7459 10.9983C19.7459 13.845 19.7348 14.1828 19.6837 15.3072C19.6361 16.3472 19.4624 16.9117 19.3164 17.2872C19.123 17.785 18.8915 18.1395 18.5181 18.5126C18.1448 18.8859 17.7903 19.117 17.2923 19.3104C16.9168 19.457 16.3519 19.6304 15.3119 19.6779C14.1874 19.729 13.8496 19.7402 11.0016 19.7402C8.15335 19.7402 7.81579 19.729 6.69134 19.6779C5.65133 19.6299 5.08688 19.4562 4.71065 19.3102C4.21287 19.1168 3.85731 18.8857 3.48397 18.5124C3.11063 18.139 2.87952 17.7844 2.68574 17.2864C2.53974 16.9108 2.36574 16.3463 2.3184 15.3063C2.26729 14.1819 2.25707 13.8441 2.25707 10.9956C2.25707 8.14715 2.26729 7.81114 2.3184 6.68669C2.36596 5.64668 2.53974 5.08223 2.68574 4.70622C2.87908 4.20844 3.11063 3.85288 3.48397 3.47954C3.85731 3.10621 4.21287 2.87509 4.71065 2.68131C5.08665 2.53464 5.65133 2.36131 6.69134 2.31353C7.67535 2.26909 8.05668 2.25575 10.0447 2.25353V2.2562ZM16.6954 4.02733C15.9888 4.02733 15.4154 4.6 15.4154 5.3069C15.4154 6.01357 15.9888 6.58691 16.6954 6.58691C17.4021 6.58691 17.9755 6.01357 17.9755 5.3069C17.9755 4.60023 17.4021 4.02733 16.6954 4.02733ZM11.0017 5.5229C7.97653 5.5229 5.52383 7.97559 5.52383 11.0007C5.52383 14.0259 7.97653 16.4775 11.0017 16.4775C14.0268 16.4775 16.4786 14.0259 16.4786 11.0007C16.4786 7.97559 14.0268 5.5229 11.0017 5.5229ZM11.0016 7.44514C12.9652 7.44514 14.5572 9.03693 14.5572 11.0007C14.5572 12.9643 12.9652 14.5563 11.0016 14.5563C9.03783 14.5563 7.44603 12.9643 7.44603 11.0007C7.44603 9.03693 9.03783 7.44514 11.0016 7.44514Z" fill="#25A59E"/>
</svg>
