<svg width="22" height="16" viewBox="0 0 22 16" fill="none" xmlns="http://www.w3.org/2000/svg">
<path fill-rule="evenodd" clip-rule="evenodd" d="M19.3353 1.12379C20.2533 1.37568 20.9762 2.11786 21.2215 3.06037C21.6673 4.76855 21.6673 8.33268 21.6673 8.33268C21.6673 8.33268 21.6673 11.8967 21.2215 13.605C20.9762 14.5475 20.2533 15.2897 19.3353 15.5417C17.6718 15.9994 11.0007 15.9994 11.0007 15.9994C11.0007 15.9994 4.3295 15.9994 2.66586 15.5417C1.74792 15.2897 1.02501 14.5475 0.779681 13.605C0.333984 11.8967 0.333984 8.33268 0.333984 8.33268C0.333984 8.33268 0.333984 4.76855 0.779681 3.06037C1.02501 2.11786 1.74792 1.37568 2.66586 1.12379C4.3295 0.666016 11.0007 0.666016 11.0007 0.666016C11.0007 0.666016 17.6718 0.666016 19.3353 1.12379ZM9.00067 5.33261V11.9993L14.334 8.66607L9.00067 5.33261Z" fill="#25A59E"/>
</svg>
